<?xml version="1.0" encoding="UTF-8" standalone="no"?>
<!DOCTYPE svg PUBLIC "-//W3C//DTD SVG 1.1//EN"
 "http://www.w3.org/Graphics/SVG/1.1/DTD/svg11.dtd">
<!-- Generated by graphviz version 16.0.0 (20260814.1018)
 -->
<!-- Title: DocumentationQuality::QualityMetrics::calculateCompletenessScore Pages: 1 -->
<svg width="445pt" height="58pt"
 viewBox="0.00 0.00 445.00 58.00" xmlns="http://www.w3.org/2000/svg" xmlns:xlink="http://www.w3.org/1999/xlink">
<g id="graph0" class="graph" transform="scale(1 1) rotate(0) translate(4 54)">
<title>DocumentationQuality::QualityMetrics::calculateCompletenessScore</title>
<!-- Node1 -->
<g id="Node000001" class="node">
<title>Node1</title>
<g id="a_Node000001"><a xlink:title="Calculates the proportion of documents containing nonempty text.">
<polygon fill="#999999" stroke="#666666" points="437.31,-44 307.31,-44 307.31,0 437.31,0 437.31,-44"/>
<text xml:space="preserve" text-anchor="start" x="315.31" y="-30.5" font-family="Helvetica,sans-Serif" font-size="10.00">DocumentationQuality</text>
<text xml:space="preserve" text-anchor="start" x="315.31" y="-18.5" font-family="Helvetica,sans-Serif" font-size="10.00">::QualityMetrics::calculate</text>
<text xml:space="preserve" text-anchor="middle" x="372.31" y="-6.5" font-family="Helvetica,sans-Serif" font-size="10.00">CompletenessScore</text>
</a>
</g>
</g>
<!-- Node2 -->
<g id="Node000002" class="node">
<title>Node2</title>
<g id="a_Node000002"><a xlink:href="class_documentation_quality_1_1_quality_metrics.html#a6258b649a199480ae96fffca62177ce8" target="_top" xlink:title="Generates a simulated quality report.">
<polygon fill="white" stroke="#666666" points="271.31,-38 82.81,-38 82.81,-6 271.31,-6 271.31,-38"/>
<text xml:space="preserve" text-anchor="start" x="90.81" y="-24.5" font-family="Helvetica,sans-Serif" font-size="10.00">DocumentationQuality</text>
<text xml:space="preserve" text-anchor="middle" x="177.06" y="-12.5" font-family="Helvetica,sans-Serif" font-size="10.00">::QualityMetrics::assessDocumentation</text>
</a>
</g>
</g>
<!-- Node1&#45;&gt;Node2 -->
<g id="edge1_Node000001_Node000002" class="edge">
<title>Node1&#45;&gt;Node2</title>
<g id="a_edge1_Node000001_Node000002"><a xlink:title=" ">
<path fill="none" stroke="#63b8ff" d="M295.64,-22C287.8,-22 279.76,-22 271.76,-22"/>
<polygon fill="#63b8ff" stroke="#63b8ff" points="295.44,-25.5 305.44,-22 295.44,-18.5 295.44,-25.5"/>
</a>
</g>
</g>
<!-- Node3 -->
<g id="Node000003" class="node">
<title>Node3</title>
<g id="a_Node000003"><a xlink:href="main_8cpp.html#ae66f6b31b5ad750f1fe042a706a4e3d4" target="_top" xlink:title="Runs a simple example of DocumentationQuality::QualityMetrics.">
<polygon fill="white" stroke="#666666" points="46.81,-32 9.81,-32 9.81,-12 46.81,-12 46.81,-32"/>
<text xml:space="preserve" text-anchor="middle" x="28.31" y="-18.5" font-family="Helvetica,sans-Serif" font-size="10.00">main</text>
</a>
</g>
</g>
<!-- Node2&#45;&gt;Node3 -->
<g id="edge2_Node000002_Node000003" class="edge">
<title>Node2&#45;&gt;Node3</title>
<g id="a_edge2_Node000002_Node000003"><a xlink:title=" ">
<path fill="none" stroke="#63b8ff" d="M71.23,-22C62.12,-22 53.8,-22 47.02,-22"/>
<polygon fill="#63b8ff" stroke="#63b8ff" points="71.19,-25.5 81.19,-22 71.19,-18.5 71.19,-25.5"/>
</a>
</g>
</g>
<!-- Node3&#45;&gt;Node3 -->
<g id="edge3_Node000003_Node000003" class="edge">
<title>Node3&#45;&gt;Node3</title>
<g id="a_edge3_Node000003_Node000003"><a xlink:title=" ">
<path fill="none" stroke="#63b8ff" d="M55.54,-36.75C58.83,-43.79 49.75,-50 28.31,-50 -0.89,-50 -7.16,-38.49 9.49,-29.03"/>
<polygon fill="#63b8ff" stroke="#63b8ff" points="57.98,-34.23 48.24,-30.05 53.25,-39.39 57.98,-34.23"/>
</a>
</g>
</g>
</g>
</svg>
