<?xml version="1.0" encoding="UTF-8" standalone="no"?>
<!DOCTYPE svg PUBLIC "-//W3C//DTD SVG 1.1//EN"
 "http://www.w3.org/Graphics/SVG/1.1/DTD/svg11.dtd">
<!-- Generated by graphviz version 16.0.0 (20260814.1018)
 -->
<!-- Title: main Pages: 1 -->
<svg width="488pt" height="294pt"
 viewBox="0.00 0.00 488.00 294.00" xmlns="http://www.w3.org/2000/svg" xmlns:xlink="http://www.w3.org/1999/xlink">
<g id="graph0" class="graph" transform="scale(1 1) rotate(0) translate(4 290)">
<title>main</title>
<!-- Node1 -->
<g id="Node000001" class="node">
<title>Node1</title>
<g id="a_Node000001"><a xlink:title="Runs a simple example of DocumentationQuality::QualityMetrics.">
<polygon fill="#999999" stroke="#666666" points="47.37,-125 10.37,-125 10.37,-105 47.37,-105 47.37,-125"/>
<text xml:space="preserve" text-anchor="middle" x="28.87" y="-111.5" font-family="Helvetica,sans-Serif" font-size="10.00">main</text>
</a>
</g>
</g>
<!-- Node1&#45;&gt;Node1 -->
<g id="edge8_Node000001_Node000001" class="edge">
<title>Node1&#45;&gt;Node1</title>
<g id="a_edge8_Node000001_Node000001"><a xlink:title=" ">
<path fill="none" stroke="#63b8ff" d="M9.92,-121.89C-7.38,-131.38 -1.07,-143 28.87,-143 51.32,-143 60.48,-136.46 56.36,-129.19"/>
<polygon fill="#63b8ff" stroke="#63b8ff" points="58.84,-126.7 48.96,-122.87 54.29,-132.03 58.84,-126.7"/>
</a>
</g>
</g>
<!-- Node2 -->
<g id="Node000002" class="node">
<title>Node2</title>
<g id="a_Node000002"><a xlink:href="class_documentation_quality_1_1_quality_metrics.html#a6258b649a199480ae96fffca62177ce8" target="_top" xlink:title="Generates a simulated quality report.">
<polygon fill="white" stroke="#666666" points="274.87,-218 86.37,-218 86.37,-186 274.87,-186 274.87,-218"/>
<text xml:space="preserve" text-anchor="start" x="94.37" y="-204.5" font-family="Helvetica,sans-Serif" font-size="10.00">DocumentationQuality</text>
<text xml:space="preserve" text-anchor="middle" x="180.62" y="-192.5" font-family="Helvetica,sans-Serif" font-size="10.00">::QualityMetrics::assessDocumentation</text>
</a>
</g>
</g>
<!-- Node1&#45;&gt;Node2 -->
<g id="edge1_Node000001_Node000002" class="edge">
<title>Node1&#45;&gt;Node2</title>
<g id="a_edge1_Node000001_Node000002"><a xlink:title=" ">
<path fill="none" stroke="#63b8ff" d="M35.76,-125.04C44.41,-138.88 61.88,-163.63 83.37,-177 85.51,-178.33 87.73,-179.6 89.99,-180.79"/>
<polygon fill="#63b8ff" stroke="#63b8ff" points="88.33,-183.88 98.87,-184.97 91.31,-177.54 88.33,-183.88"/>
</a>
</g>
</g>
<!-- Node6 -->
<g id="Node000006" class="node">
<title>Node6</title>
<g id="a_Node000006"><a xlink:href="class_documentation_quality_1_1_quality_metrics.html#a9c3f881a620cf10224b2dfc153b0d211" target="_top" xlink:title="Retrieves fictional benchmark scores.">
<polygon fill="white" stroke="#666666" points="250.12,-168 111.12,-168 111.12,-124 250.12,-124 250.12,-168"/>
<text xml:space="preserve" text-anchor="start" x="119.12" y="-154.5" font-family="Helvetica,sans-Serif" font-size="10.00">DocumentationQuality</text>
<text xml:space="preserve" text-anchor="start" x="119.12" y="-142.5" font-family="Helvetica,sans-Serif" font-size="10.00">::QualityMetrics::benchmark</text>
<text xml:space="preserve" text-anchor="middle" x="180.62" y="-130.5" font-family="Helvetica,sans-Serif" font-size="10.00">AgainstIndustryStandards</text>
</a>
</g>
</g>
<!-- Node1&#45;&gt;Node6 -->
<g id="edge5_Node000001_Node000006" class="edge">
<title>Node1&#45;&gt;Node6</title>
<g id="a_edge5_Node000001_Node000006"><a xlink:title=" ">
<path fill="none" stroke="#63b8ff" d="M47.63,-118.68C60.91,-121.43 80.08,-125.39 99.71,-129.46"/>
<polygon fill="#63b8ff" stroke="#63b8ff" points="98.97,-132.88 109.47,-131.48 100.39,-126.02 98.97,-132.88"/>
</a>
</g>
</g>
<!-- Node7 -->
<g id="Node000007" class="node">
<title>Node7</title>
<g id="a_Node000007"><a xlink:href="class_documentation_quality_1_1_quality_metrics.html#a04d4974a011cc1ef88ed91f15ee5a7bc" target="_top" xlink:title="Checks whether two version labels are nonempty and different.">
<polygon fill="white" stroke="#666666" points="277.87,-106 83.37,-106 83.37,-62 277.87,-62 277.87,-106"/>
<text xml:space="preserve" text-anchor="start" x="91.37" y="-92.5" font-family="Helvetica,sans-Serif" font-size="10.00">DocumentationQuality</text>
<text xml:space="preserve" text-anchor="start" x="91.37" y="-80.5" font-family="Helvetica,sans-Serif" font-size="10.00">::QualityMetrics::compareDocumentation</text>
<text xml:space="preserve" text-anchor="middle" x="180.62" y="-68.5" font-family="Helvetica,sans-Serif" font-size="10.00">Versions</text>
</a>
</g>
</g>
<!-- Node1&#45;&gt;Node7 -->
<g id="edge6_Node000001_Node000007" class="edge">
<title>Node1&#45;&gt;Node7</title>
<g id="a_edge6_Node000001_Node000007"><a xlink:title=" ">
<path fill="none" stroke="#63b8ff" d="M47.63,-111.32C54.43,-109.92 62.77,-108.19 71.92,-106.29"/>
<polygon fill="#63b8ff" stroke="#63b8ff" points="72.43,-109.76 81.51,-104.31 71.01,-102.91 72.43,-109.76"/>
</a>
</g>
</g>
<!-- Node8 -->
<g id="Node000008" class="node">
<title>Node8</title>
<g id="a_Node000008"><a xlink:href="class_documentation_quality_1_1_quality_metrics.html#acab56edfacf206e6807a1a6ade520d38" target="_top" xlink:title="Selects fictional documents based on their age.">
<polygon fill="white" stroke="#666666" points="253.12,-44 108.12,-44 108.12,0 253.12,0 253.12,-44"/>
<text xml:space="preserve" text-anchor="start" x="116.12" y="-30.5" font-family="Helvetica,sans-Serif" font-size="10.00">DocumentationQuality</text>
<text xml:space="preserve" text-anchor="start" x="116.12" y="-18.5" font-family="Helvetica,sans-Serif" font-size="10.00">::QualityMetrics::identifyStale</text>
<text xml:space="preserve" text-anchor="middle" x="180.62" y="-6.5" font-family="Helvetica,sans-Serif" font-size="10.00">Documentation</text>
</a>
</g>
</g>
<!-- Node1&#45;&gt;Node8 -->
<g id="edge7_Node000001_Node000008" class="edge">
<title>Node1&#45;&gt;Node8</title>
<g id="a_edge7_Node000001_Node000008"><a xlink:title=" ">
<path fill="none" stroke="#63b8ff" d="M36.17,-104.67C45.04,-90.94 62.51,-66.82 83.37,-53 87.8,-50.06 92.53,-47.39 97.42,-44.95"/>
<polygon fill="#63b8ff" stroke="#63b8ff" points="98.64,-48.25 106.29,-40.91 95.74,-41.88 98.64,-48.25"/>
</a>
</g>
</g>
<!-- Node3 -->
<g id="Node000003" class="node">
<title>Node3</title>
<g id="a_Node000003"><a xlink:href="class_documentation_quality_1_1_quality_metrics.html#a21e5b8a8fe08f261c5c3a0a25e1982d3" target="_top" xlink:title="Assigns a simulated clarity score.">
<polygon fill="white" stroke="#666666" points="473.49,-286 320.24,-286 320.24,-242 473.49,-242 473.49,-286"/>
<text xml:space="preserve" text-anchor="start" x="328.24" y="-272.5" font-family="Helvetica,sans-Serif" font-size="10.00">DocumentationQuality</text>
<text xml:space="preserve" text-anchor="start" x="328.24" y="-260.5" font-family="Helvetica,sans-Serif" font-size="10.00">::QualityMetrics::analyzeClarity</text>
<text xml:space="preserve" text-anchor="middle" x="396.87" y="-248.5" font-family="Helvetica,sans-Serif" font-size="10.00">Metrics</text>
</a>
</g>
</g>
<!-- Node2&#45;&gt;Node3 -->
<g id="edge2_Node000002_Node000003" class="edge">
<title>Node2&#45;&gt;Node3</title>
<g id="a_edge2_Node000002_Node000003"><a xlink:title=" ">
<path fill="none" stroke="#63b8ff" d="M238.47,-218.45C260.08,-224.71 285.22,-231.98 308.98,-238.86"/>
<polygon fill="#63b8ff" stroke="#63b8ff" points="307.75,-242.14 318.33,-241.56 309.69,-235.42 307.75,-242.14"/>
</a>
</g>
</g>
<!-- Node4 -->
<g id="Node000004" class="node">
<title>Node4</title>
<g id="a_Node000004"><a xlink:href="class_documentation_quality_1_1_quality_metrics.html#a986159bfedc12f5a8c9cd06f53675ec3" target="_top" xlink:title="Calculates the proportion of documents containing nonempty text.">
<polygon fill="white" stroke="#666666" points="461.87,-224 331.87,-224 331.87,-180 461.87,-180 461.87,-224"/>
<text xml:space="preserve" text-anchor="start" x="339.87" y="-210.5" font-family="Helvetica,sans-Serif" font-size="10.00">DocumentationQuality</text>
<text xml:space="preserve" text-anchor="start" x="339.87" y="-198.5" font-family="Helvetica,sans-Serif" font-size="10.00">::QualityMetrics::calculate</text>
<text xml:space="preserve" text-anchor="middle" x="396.87" y="-186.5" font-family="Helvetica,sans-Serif" font-size="10.00">CompletenessScore</text>
</a>
</g>
</g>
<!-- Node2&#45;&gt;Node4 -->
<g id="edge3_Node000002_Node000004" class="edge">
<title>Node2&#45;&gt;Node4</title>
<g id="a_edge3_Node000002_Node000004"><a xlink:title=" ">
<path fill="none" stroke="#63b8ff" d="M275.28,-202C290.29,-202 305.67,-202 320.2,-202"/>
<polygon fill="#63b8ff" stroke="#63b8ff" points="320.13,-205.5 330.13,-202 320.13,-198.5 320.13,-205.5"/>
</a>
</g>
</g>
<!-- Node5 -->
<g id="Node000005" class="node">
<title>Node5</title>
<g id="a_Node000005"><a xlink:href="class_documentation_quality_1_1_quality_metrics.html#aabbc346beb01adee350f96dbbedcdafd" target="_top" xlink:title="Simulates accuracy validation by checking for nonempty text.">
<polygon fill="white" stroke="#666666" points="479.87,-162 313.87,-162 313.87,-118 479.87,-118 479.87,-162"/>
<text xml:space="preserve" text-anchor="start" x="321.87" y="-148.5" font-family="Helvetica,sans-Serif" font-size="10.00">DocumentationQuality</text>
<text xml:space="preserve" text-anchor="start" x="321.87" y="-136.5" font-family="Helvetica,sans-Serif" font-size="10.00">::QualityMetrics::validateTechnical</text>
<text xml:space="preserve" text-anchor="middle" x="396.87" y="-124.5" font-family="Helvetica,sans-Serif" font-size="10.00">Accuracy</text>
</a>
</g>
</g>
<!-- Node2&#45;&gt;Node5 -->
<g id="edge4_Node000002_Node000005" class="edge">
<title>Node2&#45;&gt;Node5</title>
<g id="a_edge4_Node000002_Node000005"><a xlink:title=" ">
<path fill="none" stroke="#63b8ff" d="M246.71,-185.56C257.16,-182.79 267.83,-179.88 277.87,-177 290,-173.52 302.78,-169.69 315.28,-165.86"/>
<polygon fill="#63b8ff" stroke="#63b8ff" points="316.19,-169.24 324.71,-162.94 314.12,-162.55 316.19,-169.24"/>
</a>
</g>
</g>
</g>
</svg>
