<?xml version="1.0" encoding="UTF-8" standalone="no"?>
<!DOCTYPE svg PUBLIC "-//W3C//DTD SVG 1.1//EN"
 "http://www.w3.org/Graphics/SVG/1.1/DTD/svg11.dtd">
<!-- Generated by graphviz version 16.0.0 (20260814.1018)
 -->
<!-- Title: main.cpp Pages: 1 -->
<svg width="241pt" height="140pt"
 viewBox="0.00 0.00 241.00 140.00" xmlns="http://www.w3.org/2000/svg" xmlns:xlink="http://www.w3.org/1999/xlink">
<g id="graph0" class="graph" transform="scale(1 1) rotate(0) translate(4 136)">
<title>main.cpp</title>
<!-- Node1 -->
<g id="Node000001" class="node">
<title>Node1</title>
<g id="a_Node000001"><a xlink:title="Example usage of simulated documentation quality metrics.">
<polygon fill="#999999" stroke="#666666" points="191.38,-132 135.62,-132 135.62,-112 191.38,-112 191.38,-132"/>
<text xml:space="preserve" text-anchor="middle" x="163.5" y="-118.5" font-family="Helvetica,sans-Serif" font-size="10.00">main.cpp</text>
</a>
</g>
</g>
<!-- Node2 -->
<g id="Node000002" class="node">
<title>Node2</title>
<g id="a_Node000002"><a xlink:href="_doc_quality_8h.html" target="_top" xlink:title="Declarations for simulated documentation quality assessment.">
<polygon fill="white" stroke="#666666" points="159.62,-76 87.38,-76 87.38,-56 159.62,-56 159.62,-76"/>
<text xml:space="preserve" text-anchor="middle" x="123.5" y="-62.5" font-family="Helvetica,sans-Serif" font-size="10.00">DocQuality.h</text>
</a>
</g>
</g>
<!-- Node1&#45;&gt;Node2 -->
<g id="edge1_Node000001_Node000002" class="edge">
<title>Node1&#45;&gt;Node2</title>
<g id="a_edge1_Node000001_Node000002"><a xlink:title=" ">
<path fill="none" stroke="#63b8ff" d="M156.53,-111.59C151.2,-104.39 143.67,-94.23 137.15,-85.43"/>
<polygon fill="#63b8ff" stroke="#63b8ff" points="140.05,-83.47 131.29,-77.51 134.43,-87.63 140.05,-83.47"/>
</a>
</g>
</g>
<!-- Node7 -->
<g id="Node000007" class="node">
<title>Node7</title>
<g id="a_Node000007"><a xlink:title=" ">
<polygon fill="#e0e0e0" stroke="#999999" points="231.25,-76 177.75,-76 177.75,-56 231.25,-56 231.25,-76"/>
<text xml:space="preserve" text-anchor="middle" x="204.5" y="-62.5" font-family="Helvetica,sans-Serif" font-size="10.00">iostream</text>
</a>
</g>
</g>
<!-- Node1&#45;&gt;Node7 -->
<g id="edge6_Node000001_Node000007" class="edge">
<title>Node1&#45;&gt;Node7</title>
<g id="a_edge6_Node000001_Node000007"><a xlink:title=" ">
<path fill="none" stroke="#63b8ff" d="M170.64,-111.59C176.11,-104.39 183.82,-94.23 190.51,-85.43"/>
<polygon fill="#63b8ff" stroke="#63b8ff" points="193.27,-87.58 196.52,-77.5 187.69,-83.35 193.27,-87.58"/>
</a>
</g>
</g>
<!-- Node3 -->
<g id="Node000003" class="node">
<title>Node3</title>
<g id="a_Node000003"><a xlink:title=" ">
<polygon fill="#e0e0e0" stroke="#999999" points="61,-20 0,-20 0,0 61,0 61,-20"/>
<text xml:space="preserve" text-anchor="middle" x="30.5" y="-6.5" font-family="Helvetica,sans-Serif" font-size="10.00">filesystem</text>
</a>
</g>
</g>
<!-- Node2&#45;&gt;Node3 -->
<g id="edge2_Node000002_Node000003" class="edge">
<title>Node2&#45;&gt;Node3</title>
<g id="a_edge2_Node000002_Node000003"><a xlink:title=" ">
<path fill="none" stroke="#63b8ff" d="M107.3,-55.59C93.25,-47.44 72.67,-35.48 56.34,-26"/>
<polygon fill="#63b8ff" stroke="#63b8ff" points="58.54,-23.23 48.13,-21.24 55.03,-29.29 58.54,-23.23"/>
</a>
</g>
</g>
<!-- Node4 -->
<g id="Node000004" class="node">
<title>Node4</title>
<g id="a_Node000004"><a xlink:title=" ">
<polygon fill="#e0e0e0" stroke="#999999" points="113.88,-20 79.12,-20 79.12,0 113.88,0 113.88,-20"/>
<text xml:space="preserve" text-anchor="middle" x="96.5" y="-6.5" font-family="Helvetica,sans-Serif" font-size="10.00">map</text>
</a>
</g>
</g>
<!-- Node2&#45;&gt;Node4 -->
<g id="edge3_Node000002_Node000004" class="edge">
<title>Node2&#45;&gt;Node4</title>
<g id="a_edge3_Node000002_Node000004"><a xlink:title=" ">
<path fill="none" stroke="#63b8ff" d="M118.8,-55.59C115.35,-48.7 110.55,-39.1 106.29,-30.57"/>
<polygon fill="#63b8ff" stroke="#63b8ff" points="109.43,-29.03 101.83,-21.65 103.17,-32.16 109.43,-29.03"/>
</a>
</g>
</g>
<!-- Node5 -->
<g id="Node000005" class="node">
<title>Node5</title>
<g id="a_Node000005"><a xlink:title=" ">
<polygon fill="#e0e0e0" stroke="#999999" points="171.5,-20 131.5,-20 131.5,0 171.5,0 171.5,-20"/>
<text xml:space="preserve" text-anchor="middle" x="151.5" y="-6.5" font-family="Helvetica,sans-Serif" font-size="10.00">string</text>
</a>
</g>
</g>
<!-- Node2&#45;&gt;Node5 -->
<g id="edge4_Node000002_Node000005" class="edge">
<title>Node2&#45;&gt;Node5</title>
<g id="a_edge4_Node000002_Node000005"><a xlink:title=" ">
<path fill="none" stroke="#63b8ff" d="M128.38,-55.59C131.99,-48.63 137.04,-38.89 141.5,-30.29"/>
<polygon fill="#63b8ff" stroke="#63b8ff" points="144.49,-32.13 145.98,-21.64 138.27,-28.91 144.49,-32.13"/>
</a>
</g>
</g>
<!-- Node6 -->
<g id="Node000006" class="node">
<title>Node6</title>
<g id="a_Node000006"><a xlink:title=" ">
<polygon fill="#e0e0e0" stroke="#999999" points="233,-20 190,-20 190,0 233,0 233,-20"/>
<text xml:space="preserve" text-anchor="middle" x="211.5" y="-6.5" font-family="Helvetica,sans-Serif" font-size="10.00">vector</text>
</a>
</g>
</g>
<!-- Node2&#45;&gt;Node6 -->
<g id="edge5_Node000002_Node000006" class="edge">
<title>Node2&#45;&gt;Node6</title>
<g id="a_edge5_Node000002_Node000006"><a xlink:title=" ">
<path fill="none" stroke="#63b8ff" d="M138.83,-55.59C152,-47.51 171.23,-35.71 186.61,-26.27"/>
<polygon fill="#63b8ff" stroke="#63b8ff" points="188.07,-29.48 194.76,-21.27 184.41,-23.52 188.07,-29.48"/>
</a>
</g>
</g>
</g>
</svg>
