<?xml version="1.0" encoding="UTF-8" standalone="no"?>
<!DOCTYPE svg PUBLIC "-//W3C//DTD SVG 1.1//EN"
 "http://www.w3.org/Graphics/SVG/1.1/DTD/svg11.dtd">
<!-- Generated by graphviz version 16.0.0 (20260814.1018)
 -->
<!-- Title: Calculator::storeInMemory Pages: 1 -->
<svg width="217pt" height="46pt"
 viewBox="0.00 0.00 217.00 46.00" xmlns="http://www.w3.org/2000/svg" xmlns:xlink="http://www.w3.org/1999/xlink">
<g id="graph0" class="graph" transform="scale(1 1) rotate(0) translate(4 42)">
<title>Calculator::storeInMemory</title>
<!-- Node1 -->
<g id="Node000001" class="node">
<title>Node1</title>
<g id="a_Node000001"><a xlink:title=" ">
<polygon fill="#999999" stroke="#666666" points="208.77,-20 77.27,-20 77.27,0 208.77,0 208.77,-20"/>
<text xml:space="preserve" text-anchor="middle" x="143.02" y="-6.5" font-family="Helvetica,sans-Serif" font-size="10.00">Calculator::storeInMemory</text>
</a>
</g>
</g>
<!-- Node2 -->
<g id="Node000002" class="node">
<title>Node2</title>
<g id="a_Node000002"><a xlink:href="main_8cpp.html#ae66f6b31b5ad750f1fe042a706a4e3d4" target="_top" xlink:title=" ">
<polygon fill="white" stroke="#666666" points="41.27,-20 4.27,-20 4.27,0 41.27,0 41.27,-20"/>
<text xml:space="preserve" text-anchor="middle" x="22.77" y="-6.5" font-family="Helvetica,sans-Serif" font-size="10.00">main</text>
</a>
</g>
</g>
<!-- Node1&#45;&gt;Node2 -->
<g id="edge1_Node000001_Node000002" class="edge">
<title>Node1&#45;&gt;Node2</title>
<g id="a_edge1_Node000001_Node000002"><a xlink:title=" ">
<path fill="none" stroke="#63b8ff" d="M65.52,-10C56.64,-10 48.33,-10 41.5,-10"/>
<polygon fill="#63b8ff" stroke="#63b8ff" points="65.5,-13.5 75.5,-10 65.5,-6.5 65.5,-13.5"/>
</a>
</g>
</g>
<!-- Node2&#45;&gt;Node2 -->
<g id="edge2_Node000002_Node000002" class="edge">
<title>Node2&#45;&gt;Node2</title>
<g id="a_edge2_Node000002_Node000002"><a xlink:title=" ">
<path fill="none" stroke="#63b8ff" d="M44.33,-30.97C41.85,-35.08 34.66,-38 22.77,-38 1.63,-38 -4.64,-28.77 3.94,-20.05"/>
<polygon fill="#63b8ff" stroke="#63b8ff" points="47.79,-30.37 41.96,-21.52 41,-32.07 47.79,-30.37"/>
</a>
</g>
</g>
</g>
</svg>
