<?xml version="1.0" encoding="UTF-8" standalone="no"?>
<!DOCTYPE svg PUBLIC "-//W3C//DTD SVG 1.1//EN"
 "http://www.w3.org/Graphics/SVG/1.1/DTD/svg11.dtd">
<!-- Generated by graphviz version 16.0.0 (20260814.1018)
 -->
<!-- Title: StatisticsCalculator::calculateMean Pages: 1 -->
<svg width="184pt" height="52pt"
 viewBox="0.00 0.00 184.00 52.00" xmlns="http://www.w3.org/2000/svg" xmlns:xlink="http://www.w3.org/1999/xlink">
<g id="graph0" class="graph" transform="scale(1 1) rotate(0) translate(4 48)">
<title>StatisticsCalculator::calculateMean</title>
<!-- Node1 -->
<g id="Node000001" class="node">
<title>Node1</title>
<g id="a_Node000001"><a xlink:title=" ">
<polygon fill="#999999" stroke="#666666" points="175.89,-32 74.39,-32 74.39,0 175.89,0 175.89,-32"/>
<text xml:space="preserve" text-anchor="start" x="82.39" y="-18.5" font-family="Helvetica,sans-Serif" font-size="10.00">StatisticsCalculator</text>
<text xml:space="preserve" text-anchor="middle" x="125.14" y="-6.5" font-family="Helvetica,sans-Serif" font-size="10.00">::calculateMean</text>
</a>
</g>
</g>
<!-- Node2 -->
<g id="Node000002" class="node">
<title>Node2</title>
<g id="a_Node000002"><a xlink:href="main_8cpp.html#ae66f6b31b5ad750f1fe042a706a4e3d4" target="_top" xlink:title=" ">
<polygon fill="white" stroke="#666666" points="38.39,-26 1.39,-26 1.39,-6 38.39,-6 38.39,-26"/>
<text xml:space="preserve" text-anchor="middle" x="19.89" y="-12.5" font-family="Helvetica,sans-Serif" font-size="10.00">main</text>
</a>
</g>
</g>
<!-- Node1&#45;&gt;Node2 -->
<g id="edge1_Node000001_Node000002" class="edge">
<title>Node1&#45;&gt;Node2</title>
<g id="a_edge1_Node000001_Node000002"><a xlink:title=" ">
<path fill="none" stroke="#63b8ff" d="M62.73,-16C53.91,-16 45.49,-16 38.54,-16"/>
<polygon fill="#63b8ff" stroke="#63b8ff" points="62.52,-19.5 72.52,-16 62.52,-12.5 62.52,-19.5"/>
</a>
</g>
</g>
<!-- Node2&#45;&gt;Node2 -->
<g id="edge2_Node000002_Node000002" class="edge">
<title>Node2&#45;&gt;Node2</title>
<g id="a_edge2_Node000002_Node000002"><a xlink:title=" ">
<path fill="none" stroke="#63b8ff" d="M38.5,-37.44C36.1,-41.3 29.9,-44 19.89,-44 1.6,-44 -3.98,-34.98 3.17,-26.34"/>
<polygon fill="#63b8ff" stroke="#63b8ff" points="41.99,-37.11 36.87,-27.83 35.09,-38.27 41.99,-37.11"/>
</a>
</g>
</g>
</g>
</svg>
